#!OML:ASF F:\VICON\USERDATA\INSTALL\Justin_Nancy\Justin_Nancy.ASF
:FULLY-SPECIFIED
:DEGREES
63
root 0.733069 17.736 -15.6902 5.22841 -3.08828 -1.06066
lowerback 4.34231 -0.092201 -0.380677
upperback -0.858602 -0.0531211 2.83118
thorax -3.3188 0.00886206 3.14077
lowerneck -15.9502 -4.56457 -10.531
upperneck 20.3385 -4.99887 5.94925
head 9.48012 -2.50472 3.15823
rclavicle -3.62782e-015 -2.70347e-014
rhumerus -33.7109 -9.51451 -78.8209
rradius 33.3498
rwrist 4.7044
rhand -11.6821 13.3434
rfingers 7.12502
rthumb 14.3633 -16.1397
lclavicle -3.62782e-015 -2.70347e-014
lhumerus -35.0061 12.5872 82.5092
lradius 30.7394
lwrist -3.98795
lhand -20.6567 18.0607
lfingers 7.12502
lthumb 5.70576 47.9639
rfemur -10.7725 5.27009 19.5785
rtibia 22.0573
rfoot -11.2873 -7.67308
rtoes 8.15105
lfemur -12.1356 -4.06672 -16.8472
ltibia 24.4629
lfoot -13.7545 9.2883
ltoes -0.954995
64
root 0.734138 17.7316 -15.6906 5.11806 -3.03157 -1.01806
lowerback 4.46235 -0.123589 -0.433152
upperback -0.838907 -0.0961898 2.85692
thorax -3.3636 -0.0110616 3.20104
lowerneck -15.9609 -4.54702 -10.6045
upperneck 20.3241 -4.95795 5.96899
head 9.47609 -2.4889 3.18262
rclavicle 9.83984e-015 -7.95139e-015
rhumerus -33.7169 -9.40322 -78.8167
rradius 33.3857
rwrist 4.72024
rhand -11.6459 13.2914
rfingers 7.12502
rthumb 14.3982 -16.1892
lclavicle 9.83984e-015 -7.95139e-015
lhumerus -35.0087 12.7483 82.508
lradius 30.729
lwrist -4.20563
lhand -20.465 18.9666
lfingers 7.12502
lthumb 5.89092 48.8647
rfemur -10.6417 5.24198 19.5385
rtibia 22.069
rfoot -11.2675 -7.66883
rtoes 8.72005
lfemur -12.0683 -3.99309 -16.9072
ltibia 24.4687
lfoot -13.6568 9.22578
ltoes -1.93068
65
root 0.734711 17.7284 -15.6891 5.07594 -3.0822 -1.07353
lowerback 4.53737 -0.111067 -0.4052
upperback -0.864543 -0.0748665 2.90441
thorax -3.43375 0.000366897 3.23393
lowerneck -15.9764 -4.50581 -10.6034
upperneck 20.3739 -4.8912 5.92849
head 9.48919 -2.46256 3.17775
rclavicle 3.03147e-015 1.43125e-014
rhumerus -33.7972 -9.38642 -78.7365
rradius 33.3902
rwrist 4.7328
rhand -11.609 13.2693
rfingers 7.12502
rthumb 14.4338 -16.2087
lclavicle 3.03147e-015 1.43125e-014
lhumerus -35.0666 12.7301 82.567
lradius 30.6768
lwrist -4.07518
lhand -20.6058 19.2466
lfingers 7.12502
lthumb 5.75492 49.1485
rfemur -10.6149 5.21982 19.5945
rtibia 22.0661
rfoot -11.2497 -7.60366
rtoes 8.94395
lfemur -12.0468 -3.97488 -16.8489
ltibia 24.4983
lfoot -13.6378 9.26866
ltoes -1.91686
66
root 0.735342 17.7309 -15.6898 5.21989 -3.27684 -1.13593
lowerback 4.39691 -0.0288195 -0.328875
upperback -0.941145 0.0389116 2.89154
thorax -3.4404 0.0560733 3.16867
lowerneck -15.8993 -4.47777 -10.5792
upperneck 20.3681 -4.87144 5.94762
head 9.47068 -2.45067 3.18408
rclavicle 4.67144e-015 1.59028e-015
rhumerus -33.8821 -9.53637 -78.6842
rradius 33.285
rwrist 4.86321
rhand -11.6747 13.4899
rfingers 7.12502
rthumb 14.3705 -15.9927
lclavicle 4.67144e-015 1.59028e-015
lhumerus -35.1512 12.6289 82.5572
lradius 30.6628
lwrist -3.94683
lhand -20.6596 19.0756
lfingers 7.12502
lthumb 5.70296 48.9789
rfemur -10.8282 5.34368 19.6246
rtibia 22.105
rfoot -11.2965 -7.52457
rtoes 8.79808
lfemur -12.1393 -3.96742 -16.7806
ltibia 24.5081
lfoot -13.7021 9.36885
ltoes -1.46445
67
root 0.733573 17.7347 -15.6924 5.37517 -3.47131 -1.16338
lowerback 4.21961 0.0473579 -0.337182
upperback -0.985495 0.139033 2.8947
thorax -3.39209 0.106112 3.16879
lowerneck -15.982 -4.47868 -10.5596
upperneck 20.492 -4.8753 5.95646
head 9.5293 -2.45013 3.18399
rclavicle 4.47266e-015 2.06736e-014
rhumerus -33.8766 -9.56808 -78.6767
rradius 33.1653
rwrist 4.88877
rhand -11.8137 13.6443
rfingers 7.12502
rthumb 14.2365 -15.8478
lclavicle 4.47266e-015 2.06736e-014
lhumerus -35.1412 12.6688 82.5219
lradius 30.6336
lwrist -4.17294
lhand -20.5357 19.4933
lfingers 7.12502
lthumb 5.82266 49.3933
rfemur -11.0562 5.41687 19.6205
rtibia 22.1345
rfoot -11.3183 -7.41056
rtoes 8.1204
lfemur -12.271 -3.7745 -16.7748
ltibia 24.5222
lfoot -13.6764 9.39785
ltoes -1.86607
68
root 0.730406 17.734 -15.6969 5.38255 -3.49182 -1.06241
lowerback 4.18725 0.0746642 -0.461215
upperback -0.92915 0.165957 2.8593
thorax -3.31738 0.120529 3.19965
lowerneck -16.2318 -4.54855 -10.5314
upperneck 20.5634 -4.95161 5.94274
head 9.60667 -2.48143 3.16188
rclavicle 1.21756e-014 1.19271e-014
rhumerus -33.7019 -9.63869 -78.7058
rradius 33.0052
rwrist 4.8694
rhand -11.9025 13.5658
rfingers 7.12502
rthumb 14.151 -15.9323
lclavicle 1.21756e-014 1.19271e-014
lhumerus -34.9195 12.8342 82.488
lradius 30.3961
lwrist -4.47661
lhand -20.4927 19.002
lfingers 7.12502
lthumb 5.86419 48.9009
rfemur -11.093 5.45532 19.5142
rtibia 22.1353
rfoot -11.3958 -7.45037
rtoes 7.77789
lfemur -12.2989 -3.76804 -16.8779
ltibia 24.5434
lfoot -13.7449 9.41446
ltoes -1.67132
69
root 0.728885 17.7338 -15.6993 5.32752 -3.46696 -1.0152
lowerback 4.21193 0.0927008 -0.503728
upperback -0.89069 0.186346 2.83314
thorax -3.29276 0.130713 3.19491
lowerneck -16.2194 -4.5607 -10.4854
upperneck 20.457 -4.97558 5.93213
head 9.56751 -2.48897 3.14609
rclavicle -6.75868e-015 -4.37326e-014
rhumerus -33.7002 -9.69102 -78.7125
rradius 33.1129
rwrist 4.7348
rhand -11.7252 13.0059
rfingers 7.12502
rthumb 14.3218 -16.4802
lclavicle -6.75868e-015 -4.37326e-014
lhumerus -34.8171 12.7082 82.543
lradius 30.2372
lwrist -4.26103
lhand -20.8628 18.0483
lfingers 7.12502
lthumb 5.50684 47.9567
rfemur -11.0407 5.44805 19.476
rtibia 22.1448
rfoot -11.4208 -7.44652
rtoes 7.48297
lfemur -12.2351 -3.77798 -16.927
ltibia 24.5465
lfoot -13.7517 9.39443
ltoes -1.56703
70
root 0.728164 17.7354 -15.6983 5.35032 -3.4531 -1.06629
lowerback 4.17822 0.0905474 -0.45912
upperback -0.917958 0.1867 2.8515
thorax -3.30189 0.130518 3.18879
lowerneck -16.2731 -4.51917 -10.4774
upperneck 20.5427 -4.91899 5.94094
head 9.60222 -2.46126 3.15618
rclavicle 8.44835e-015 -2.06736e-014
rhumerus -33.8254 -9.61641 -78.7516
rradius 33.3227
rwrist 4.69154
rhand -11.7171 12.7556
rfingers 7.12502
rthumb 14.3296 -16.7299
lclavicle 8.44835e-015 -2.06736e-014
lhumerus -34.7993 12.8067 82.499
lradius 30.0683
lwrist -4.37484
lhand -20.9353 17.4523
lfingers 7.12502
lthumb 5.43684 47.3626
rfemur -11.0987 5.41561 19.5338
rtibia 22.1917
rfoot -11.3759 -7.43377
rtoes 6.95665
lfemur -12.2294 -3.68917 -16.8662
ltibia 24.5167
lfoot -13.8438 9.29902
ltoes -1.55922
